<?xml version="1.0" standalone="no"?>
<!DOCTYPE svg PUBLIC "-//W3C//DTD SVG 20010904//EN"
 "http://www.w3.org/TR/2001/REC-SVG-20010904/DTD/svg10.dtd">
<svg version="1.0" xmlns="http://www.w3.org/2000/svg"
 width="1080.000000pt" height="1080.000000pt" viewBox="0 0 1080.000000 1080.000000"
 preserveAspectRatio="xMidYMid meet">

<g transform="translate(0.000000,1080.000000) scale(0.100000,-0.100000)"
fill="#000000" stroke="none">
<path d="M5072 8629 c-539 -52 -1084 -258 -1512 -572 -550 -404 -941 -938
-1144 -1563 -77 -239 -111 -407 -141 -688 -41 -398 9 -850 138 -1246 104 -317
227 -557 461 -894 6 -8 -65 -308 -199 -842 -114 -456 -210 -835 -212 -841 -8
-21 9 -16 159 43 79 31 195 76 258 101 63 25 212 83 330 130 118 46 249 97
290 113 41 16 138 54 215 84 77 30 215 84 308 120 l167 65 90 -34 c396 -151
834 -219 1258 -195 305 18 543 61 814 149 930 302 1675 1042 1988 1973 49 145
107 389 132 553 19 129 22 190 23 440 0 253 -3 309 -23 439 -97 630 -351 1174
-767 1643 -512 576 -1247 948 -2019 1022 -124 12 -489 12 -614 0z m668 -143
c362 -47 618 -122 940 -277 702 -338 1245 -942 1513 -1684 168 -464 213 -1006
126 -1518 -68 -405 -229 -802 -467 -1152 -125 -184 -199 -273 -367 -440 -243
-243 -473 -409 -773 -559 -341 -171 -649 -258 -1056 -301 -448 -46 -933 23
-1369 196 l-98 38 -132 -53 c-73 -29 -179 -71 -237 -94 -58 -22 -170 -66 -250
-97 -80 -31 -197 -77 -260 -101 -304 -118 -463 -180 -549 -215 -52 -21 -96
-37 -98 -35 -2 1 81 338 183 748 l186 745 -57 78 c-237 320 -421 727 -509
1125 -47 211 -61 359 -60 635 0 282 11 395 63 645 85 409 296 850 579 1212 99
126 343 371 472 473 437 348 969 570 1507 629 76 9 154 18 173 20 73 9 420 -3
540 -18z"/>
<path d="M5310 8073 c-795 -25 -1510 -399 -1985 -1038 -210 -282 -368 -628
-441 -960 -35 -163 -64 -415 -64 -560 0 -230 50 -549 120 -770 95 -296 261
-604 458 -846 l69 -85 -62 -220 c-93 -326 -197 -698 -199 -709 -2 -18 -22 -25
727 270 l248 97 127 -59 c689 -326 1515 -316 2202 26 267 133 465 276 675 486
219 218 357 409 486 670 129 263 194 463 241 750 30 180 32 582 4 755 -73 454
-230 829 -494 1179 -454 601 -1158 976 -1897 1010 -77 3 -174 5 -215 4z m-658
-1179 c77 -3 131 -11 136 -17 5 -7 22 -48 37 -92 54 -160 189 -505 220 -565
24 -46 36 -126 24 -157 -9 -25 -172 -214 -243 -282 -21 -20 -36 -45 -36 -58 0
-56 274 -407 449 -576 198 -189 482 -407 532 -407 10 0 42 24 71 53 62 63 212
196 248 220 42 29 92 21 228 -37 164 -69 200 -83 422 -165 l185 -68 7 -49 c4
-27 11 -103 16 -169 l9 -120 -45 -65 c-61 -87 -195 -216 -273 -263 -105 -62
-151 -71 -324 -64 -445 18 -876 214 -1351 613 -424 356 -740 827 -853 1271
-58 229 -73 490 -34 596 32 85 102 184 191 269 113 108 178 150 222 144 19 -3
92 -8 162 -12z"/>
</g>
</svg>
